<svg width="48" height="48" viewBox="0 0 48 48" fill="none" xmlns="http://www.w3.org/2000/svg">
<path d="M40.5 25.14V22.845L43.38 20.325C43.9109 19.8571 44.2593 19.2165 44.3636 18.5166C44.4679 17.8167 44.3214 17.1024 43.95 16.5L40.41 10.5C40.147 10.0444 39.7687 9.66597 39.3133 9.40269C38.8578 9.13941 38.3411 9.00054 37.815 9C37.489 8.9975 37.1647 9.04817 36.855 9.15L33.21 10.38C32.5807 9.96181 31.9242 9.58598 31.245 9.255L30.48 5.475C30.3428 4.78441 29.9671 4.16406 29.4187 3.72255C28.8702 3.28105 28.184 3.04651 27.48 3.06H20.46C19.756 3.04651 19.0698 3.28105 18.5213 3.72255C17.9729 4.16406 17.5972 4.78441 17.46 5.475L16.695 9.255C16.0109 9.5859 15.3495 9.96172 14.715 10.38L11.145 9.09C10.8319 9.00844 10.5078 8.97804 10.185 9C9.65891 9.00054 9.14221 9.13941 8.68674 9.40269C8.23127 9.66597 7.85304 10.0444 7.59 10.5L4.05 16.5C3.69988 17.1015 3.56977 17.806 3.68197 18.4928C3.79417 19.1797 4.14168 19.8062 4.665 20.265L7.5 22.86V25.155L4.665 27.675C4.1269 28.137 3.76988 28.7747 3.6573 29.4749C3.54471 30.1751 3.68384 30.8926 4.05 31.5L7.59 37.5C7.85304 37.9556 8.23127 38.334 8.68674 38.5973C9.14221 38.8606 9.65891 38.9995 10.185 39C10.511 39.0025 10.8353 38.9518 11.145 38.85L14.79 37.62C15.4193 38.0382 16.0758 38.414 16.755 38.745L17.52 42.525C17.6572 43.2156 18.0329 43.8359 18.5813 44.2774C19.1298 44.719 19.816 44.9535 20.52 44.94H27.6C28.304 44.9535 28.9902 44.719 29.5387 44.2774C30.0871 43.8359 30.4628 43.2156 30.6 42.525L31.365 38.745C32.0491 38.4141 32.7105 38.0383 33.345 37.62L36.975 38.85C37.2847 38.9518 37.609 39.0025 37.935 39C38.4611 38.9995 38.9778 38.8606 39.4333 38.5973C39.8887 38.334 40.267 37.9556 40.53 37.5L43.95 31.5C44.3001 30.8985 44.4302 30.194 44.318 29.5072C44.2058 28.8203 43.8583 28.1938 43.335 27.735L40.5 25.14ZM37.815 36L32.67 34.26C31.4656 35.2802 30.0891 36.0776 28.605 36.615L27.54 42H20.46L19.395 36.675C17.9226 36.1224 16.5536 35.3263 15.345 34.32L10.185 36L6.645 30L10.725 26.4C10.4476 24.8473 10.4476 23.2577 10.725 21.705L6.645 18L10.185 12L15.33 13.74C16.5344 12.7198 17.9109 11.9224 19.395 11.385L20.46 6H27.54L28.605 11.325C30.0774 11.8776 31.4464 12.6737 32.655 13.68L37.815 12L41.355 18L37.275 21.6C37.5524 23.1527 37.5524 24.7423 37.275 26.295L41.355 30L37.815 36Z" fill="white"/>
<path d="M24 33C22.22 33 20.4799 32.4722 18.9999 31.4832C17.5198 30.4943 16.3663 29.0887 15.6851 27.4442C15.0039 25.7996 14.8257 23.99 15.1729 22.2442C15.5202 20.4984 16.3774 18.8947 17.636 17.636C18.8947 16.3774 20.4984 15.5202 22.2442 15.1729C23.99 14.8257 25.7996 15.0039 27.4442 15.6851C29.0887 16.3663 30.4943 17.5198 31.4832 18.9999C32.4722 20.4799 33 22.22 33 24C33.012 25.1852 32.7875 26.361 32.3394 27.4583C31.8914 28.5557 31.2289 29.5526 30.3908 30.3908C29.5526 31.2289 28.5557 31.8914 27.4583 32.3394C26.361 32.7875 25.1852 33.012 24 33ZM24 18C23.207 17.9815 22.4185 18.1241 21.6822 18.4191C20.9459 18.7141 20.2771 19.1554 19.7162 19.7162C19.1554 20.2771 18.7141 20.9459 18.4191 21.6822C18.1241 22.4185 17.9815 23.207 18 24C17.9815 24.793 18.1241 25.5815 18.4191 26.3178C18.7141 27.0541 19.1554 27.7229 19.7162 28.2838C20.2771 28.8447 20.9459 29.2859 21.6822 29.5809C22.4185 29.8759 23.207 30.0185 24 30C24.793 30.0185 25.5815 29.8759 26.3178 29.5809C27.0541 29.2859 27.7229 28.8447 28.2838 28.2838C28.8447 27.7229 29.2859 27.0541 29.5809 26.3178C29.8759 25.5815 30.0185 24.793 30 24C30.0185 23.207 29.8759 22.4185 29.5809 21.6822C29.2859 20.9459 28.8447 20.2771 28.2838 19.7162C27.7229 19.1554 27.0541 18.7141 26.3178 18.4191C25.5815 18.1241 24.793 17.9815 24 18Z" fill="white"/>
</svg>
