<svg width="48" height="48" viewBox="0 0 48 48" fill="none" xmlns="http://www.w3.org/2000/svg">
<path fill-rule="evenodd" clip-rule="evenodd" d="M24 3C19.0144 3.00067 14.1917 4.77507 10.3945 8.00579C6.59738 11.2365 4.07349 15.7128 3.27436 20.6339C2.47522 25.555 3.45296 30.5999 6.03268 34.8662C8.61241 39.1325 12.6258 42.3418 17.355 43.92C18.405 44.115 18.855 43.47 18.855 42.915V39.345C13.02 40.605 11.79 36.525 11.79 36.525C11.3797 35.2393 10.5161 34.1464 9.36 33.45C7.455 32.16 9.51 32.175 9.51 32.175C10.1754 32.269 10.8105 32.5138 11.3669 32.8908C11.9232 33.2677 12.386 33.7669 12.72 34.35C13.301 35.3921 14.2721 36.1608 15.4197 36.4871C16.5674 36.8134 17.7976 36.6706 18.84 36.09C18.9247 35.0257 19.3939 34.0286 20.16 33.285C15.51 32.745 10.605 30.945 10.605 22.905C10.571 20.8168 11.3448 18.7962 12.765 17.265C12.1222 15.4563 12.1973 13.47 12.975 11.715C12.975 11.715 14.73 11.145 18.75 13.86C22.1872 12.9224 25.8128 12.9224 29.25 13.86C33.255 11.145 35.01 11.715 35.01 11.715C35.7876 13.47 35.8628 15.4563 35.22 17.265C36.6402 18.7962 37.414 20.8168 37.38 22.905C37.38 30.975 32.475 32.745 27.795 33.27C28.2963 33.7781 28.6829 34.3878 28.9287 35.058C29.1745 35.7282 29.2739 36.4432 29.22 37.155V42.915C29.22 43.605 29.595 44.13 30.72 43.92C35.4554 42.3398 39.473 39.1243 42.0523 34.8502C44.6316 30.5761 45.604 25.5229 44.795 20.5968C43.986 15.6707 41.4486 11.1939 37.6378 7.96916C33.827 4.74444 28.9921 2.98276 24 3Z" fill="white"/>
</svg>
