<svg width="48" height="48" viewBox="0 0 48 48" fill="none" xmlns="http://www.w3.org/2000/svg">
<path d="M41.565 13.935L34.065 6.43499C33.9248 6.29597 33.7586 6.18598 33.5759 6.11134C33.3931 6.03669 33.1974 5.99885 33 5.99999H9C8.20435 5.99999 7.44129 6.31606 6.87868 6.87867C6.31607 7.44128 6 8.20434 6 8.99999V39C6 39.7956 6.31607 40.5587 6.87868 41.1213C7.44129 41.6839 8.20435 42 9 42H39C39.7957 42 40.5587 41.6839 41.1213 41.1213C41.6839 40.5587 42 39.7956 42 39V15C42.0011 14.8026 41.9633 14.6069 41.8887 14.4241C41.814 14.2414 41.704 14.0752 41.565 13.935ZM18 8.99999H30V15H18V8.99999ZM30 39H18V27H30V39ZM33 39V27C33 26.2043 32.6839 25.4413 32.1213 24.8787C31.5587 24.3161 30.7956 24 30 24H18C17.2044 24 16.4413 24.3161 15.8787 24.8787C15.3161 25.4413 15 26.2043 15 27V39H9V8.99999H15V15C15 15.7956 15.3161 16.5587 15.8787 17.1213C16.4413 17.6839 17.2044 18 18 18H30C30.7956 18 31.5587 17.6839 32.1213 17.1213C32.6839 16.5587 33 15.7956 33 15V9.61499L39 15.615V39H33Z" fill="white"/>
</svg>
