<svg width="48" height="48" viewBox="0 0 48 48" fill="none" xmlns="http://www.w3.org/2000/svg">
<path d="M45 29.1L42.9 27L37.5 32.4L32.1 27L30 29.1L35.4 34.5L30 39.9L32.1 42L37.5 36.6L42.9 42L45 39.9L39.6 34.5L45 29.1Z" fill="white"/>
<path d="M24 39H18V27H24V24H18C16.35 24 15 25.35 15 27V39H9V9H15V15C15 16.65 16.35 18 18 18H30C31.65 18 33 16.65 33 15V9.6L39 15.6V24H42V15C42 14.55 41.85 14.25 41.55 13.95L34.05 6.45C33.75 6.15 33.45 6 33 6H9C7.35 6 6 7.35 6 9V39C6 40.65 7.35 42 9 42H24V39ZM18 9H30V15H18V9Z" fill="white"/>
</svg>
