<svg width="48" height="48" viewBox="0 0 48 48" fill="none" xmlns="http://www.w3.org/2000/svg">
<path d="M24.918 3.321C24.6518 3.11349 24.324 3.00079 23.9865 3.00079C23.649 3.00079 23.3212 3.11349 23.055 3.321L1.5 20.1285L3.3645 22.4865L6 20.4315V39C6.00159 39.7952 6.31817 40.5573 6.88043 41.1196C7.4427 41.6818 8.20484 41.9984 9 42H39C39.7952 41.9984 40.5573 41.6818 41.1196 41.1196C41.6818 40.5573 41.9984 39.7952 42 39V20.445L44.6355 22.5L46.5 20.142L24.918 3.321ZM27 39H21V27H27V39ZM30 39V27C29.9992 26.2046 29.6829 25.442 29.1204 24.8796C28.558 24.3171 27.7954 24.0008 27 24H21C20.2046 24.0008 19.442 24.3171 18.8796 24.8796C18.3171 25.442 18.0008 26.2046 18 27V39H9V18.093L24 6.408L39 18.108V39H30Z" fill="white"/>
</svg>
